<svg width="28" height="28" viewBox="0 0 28 28" fill="none" xmlns="http://www.w3.org/2000/svg">
<g clip-path="url(#clip0_6_3165)">
<path d="M25.5778 0.919922H2.84145C1.78313 0.919922 0.925293 1.77776 0.925293 2.83607V25.5725C0.925293 26.6308 1.78313 27.4886 2.84145 27.4886H15.1178V17.214H11.6669V13.1924H15.1178V10.2327C15.1178 6.80054 17.2131 4.93243 20.2747 4.93243C21.7411 4.93243 23.0013 5.04169 23.3686 5.09054V8.67777H21.2574C19.5916 8.67777 19.2691 9.46933 19.2691 10.631V13.1924H23.2518L22.7329 17.214H19.2691V27.4886H25.5778C26.6362 27.4886 27.494 26.6308 27.494 25.5725V2.83607C27.494 1.77776 26.6362 0.919922 25.5778 0.919922V0.919922Z" fill="#808080"/>
</g>
<defs>
<clipPath id="clip0_6_3165">
<rect width="26.5687" height="26.5687" fill="white" transform="translate(0.925293 0.919922)"/>
</clipPath>
</defs>
</svg>
