<svg width="28" height="28" viewBox="0 0 28 28" fill="none" xmlns="http://www.w3.org/2000/svg">
<g clip-path="url(#clip0_6_3166)">
<path d="M26.2011 1.92333C25.5323 1.25429 24.7308 0.919922 23.797 0.919922H4.04322C3.10912 0.919922 2.30783 1.25441 1.63879 1.92333C0.969867 2.59207 0.635498 3.39349 0.635498 4.3274V24.081C0.635498 25.0148 0.969806 25.8164 1.63879 26.4852C2.30783 27.154 3.1093 27.4886 4.04322 27.4886H23.7967C24.7303 27.4886 25.5321 27.154 26.201 26.4852C26.87 25.8164 27.2041 25.0148 27.2041 24.081V4.3274C27.204 3.3933 26.87 2.59231 26.2011 1.92333ZM10.1753 10.4939C11.2188 9.485 12.4729 8.98033 13.9374 8.98033C15.4133 8.98033 16.673 9.485 17.7168 10.4939C18.7605 11.5029 19.2821 12.7225 19.2821 14.1523C19.2821 15.582 18.7605 16.8017 17.7168 17.8104C16.673 18.8197 15.4137 19.3243 13.9374 19.3243C12.473 19.3243 11.219 18.8193 10.1753 17.8104C9.13151 16.8015 8.60969 15.582 8.60969 14.1523C8.60969 12.7225 9.13151 11.503 10.1753 10.4939ZM24.1948 23.3721C24.1948 23.6716 24.0907 23.9223 23.8834 24.1243C23.6754 24.326 23.4278 24.427 23.1392 24.427H4.64871C4.34893 24.427 4.09793 24.326 3.8963 24.1243C3.69437 23.9228 3.5935 23.6716 3.5935 23.3721V12.163H6.03235C5.80182 12.8896 5.68653 13.645 5.68653 14.429C5.68653 16.6435 6.49364 18.5315 8.10805 20.0943C9.72264 21.6566 11.6657 22.4381 13.9374 22.4381C15.4365 22.4381 16.8202 22.0804 18.0891 21.3655C19.3575 20.6502 20.3601 19.6789 21.0987 18.4507C21.8368 17.2225 22.2058 15.8819 22.2058 14.429C22.2058 13.6451 22.0901 12.8898 21.8596 12.163H24.1949V23.3721H24.1948V23.3721ZM24.1948 7.92512C24.1948 8.25955 24.0795 8.54212 23.8485 8.77271C23.618 9.00347 23.3356 9.11871 23.001 9.11871H19.9914C19.6571 9.11871 19.3743 9.00341 19.1438 8.77271C18.9132 8.54212 18.798 8.25955 18.798 7.92512V5.07133C18.798 4.74841 18.9132 4.46881 19.1438 4.23235C19.3744 3.996 19.6572 3.87768 19.9914 3.87768H23.001C23.3356 3.87768 23.618 3.99594 23.8485 4.23235C24.0795 4.46881 24.1948 4.74841 24.1948 5.07133V7.92512Z" fill="#808080"/>
</g>
<defs>
<clipPath id="clip0_6_3166">
<rect width="26.5687" height="26.5687" fill="white" transform="translate(0.634521 0.919922)"/>
</clipPath>
</defs>
</svg>
