<svg width="27" height="28" viewBox="0 0 27 28" fill="none" xmlns="http://www.w3.org/2000/svg">
<g clip-path="url(#clip0_6_3167)">
<path d="M26.9124 5.96622C25.9244 6.39962 24.8716 6.6869 23.774 6.82638C24.9032 6.1522 25.765 5.09278 26.1702 3.81582C25.1174 4.4435 23.955 4.88687 22.7163 5.13429C21.7166 4.06988 20.2919 3.41064 18.7376 3.41064C15.722 3.41064 13.2943 5.85829 13.2943 8.85889C13.2943 9.29063 13.3309 9.70576 13.4205 10.101C8.89223 9.88012 4.88534 7.70979 2.1936 4.40365C1.72366 5.21898 1.44801 6.1522 1.44801 7.15683C1.44801 9.04321 2.41943 10.7154 3.86742 11.6835C2.99232 11.6669 2.13382 11.4128 1.4065 11.0126C1.4065 11.0292 1.4065 11.0508 1.4065 11.0724C1.4065 13.7193 3.29454 15.9179 5.77041 16.4243C5.32704 16.5455 4.84382 16.6037 4.34234 16.6037C3.99362 16.6037 3.64159 16.5837 3.31114 16.5107C4.01687 18.6677 6.01949 20.2535 8.40071 20.305C6.54754 21.7547 4.19455 22.6281 1.64728 22.6281C1.20059 22.6281 0.77217 22.6082 0.34375 22.5534C2.75652 24.1093 5.61598 24.9977 8.69961 24.9977C18.7226 24.9977 24.2024 16.695 24.2024 9.4982C24.2024 9.25742 24.1941 9.02494 24.1825 8.79413C25.2635 8.02696 26.1718 7.06882 26.9124 5.96622Z" fill="#808080"/>
</g>
<defs>
<clipPath id="clip0_6_3167">
<rect width="26.5687" height="26.5687" fill="white" transform="translate(0.34375 0.919922)"/>
</clipPath>
</defs>
</svg>
