<svg width="8" height="8" viewBox="0 0 8 8" fill="none" xmlns="http://www.w3.org/2000/svg">
<path d="M0.800003 2.39998C0.800003 2.1878 0.884288 1.98432 1.03432 1.83429C1.18435 1.68426 1.38783 1.59998 1.6 1.59998H4C4.21218 1.59998 4.41566 1.68426 4.56569 1.83429C4.71572 1.98432 4.8 2.1878 4.8 2.39998V5.59998C4.8 5.81215 4.71572 6.01563 4.56569 6.16566C4.41566 6.31569 4.21218 6.39998 4 6.39998H1.6C1.38783 6.39998 1.18435 6.31569 1.03432 6.16566C0.884288 6.01563 0.800003 5.81215 0.800003 5.59998V2.39998ZM5.8212 2.84238C5.75477 2.87557 5.69889 2.92661 5.65982 2.98977C5.62076 3.05292 5.60004 3.12571 5.6 3.19998V4.79998C5.60004 4.87424 5.62076 4.94703 5.65982 5.01019C5.69889 5.07334 5.75477 5.12438 5.8212 5.15758L6.6212 5.55758C6.68217 5.58804 6.74991 5.60242 6.818 5.59936C6.88609 5.59629 6.95226 5.57588 7.01025 5.54005C7.06823 5.50423 7.1161 5.45419 7.14931 5.39467C7.18252 5.33515 7.19997 5.26813 7.2 5.19998V2.79998C7.19997 2.73182 7.18252 2.6648 7.14931 2.60528C7.1161 2.54577 7.06823 2.49572 7.01025 2.4599C6.95226 2.42407 6.88609 2.40366 6.818 2.40059C6.74991 2.39753 6.68217 2.41191 6.6212 2.44238L5.8212 2.84238Z" fill="#EDE9FE"/>
</svg>
