<svg width="27" height="28" viewBox="0 0 27 28" fill="none" xmlns="http://www.w3.org/2000/svg">
<g clip-path="url(#clip0_6_3168)">
<path d="M25.4928 6.83147C24.7721 5.54953 23.99 5.31373 22.3975 5.22406C20.8067 5.11612 16.8064 5.07129 13.3409 5.07129C9.8687 5.07129 5.86679 5.11612 4.27765 5.2224C2.68851 5.31373 1.90473 5.54786 1.17741 6.83147C0.435148 8.11174 0.0532227 10.3169 0.0532227 14.1993C0.0532227 14.2026 0.0532227 14.2043 0.0532227 14.2043C0.0532227 14.2076 0.0532227 14.2093 0.0532227 14.2093V14.2126C0.0532227 18.0783 0.435148 20.3001 1.17741 21.5671C1.90473 22.8491 2.68684 23.0815 4.27599 23.1895C5.86679 23.2825 9.8687 23.3373 13.3409 23.3373C16.8064 23.3373 20.8067 23.2825 22.3992 23.1911C23.9916 23.0832 24.7737 22.8507 25.4944 21.5688C26.2433 20.3018 26.6219 18.08 26.6219 14.2142C26.6219 14.2142 26.6219 14.2093 26.6219 14.2059C26.6219 14.2059 26.6219 14.2026 26.6219 14.201C26.6219 10.3169 26.2433 8.11174 25.4928 6.83147ZM10.0165 19.1859V9.22265L18.3192 14.2043L10.0165 19.1859Z" fill="#808080"/>
</g>
<defs>
<clipPath id="clip0_6_3168">
<rect width="26.5687" height="26.5687" fill="white" transform="translate(0.0532227 0.919922)"/>
</clipPath>
</defs>
</svg>
